<mxfile host="app.diagrams.net" modified="2023-04-14T02:57:16.310Z" agent="Mozilla/5.0 (Windows NT 10.0; Win64; x64) AppleWebKit/537.36 (KHTML, like Gecko) Chrome/111.0.0.0 Safari/537.36" etag="sTKo6fTuDHIvIGaQmnWO" version="21.1.7" type="device">
  <diagram id="sIHxDU0UpAEGFC293PV-" name="Page-1">
    <mxGraphModel dx="1318" dy="758" grid="1" gridSize="10" guides="1" tooltips="1" connect="1" arrows="1" fold="1" page="1" pageScale="1" pageWidth="850" pageHeight="1100" math="0" shadow="0">
      <root>
        <mxCell id="0" />
        <mxCell id="1" parent="0" />
        <mxCell id="3GdXQBYGe-d5dMTSXX5j-1" value="&lt;font style=&quot;font-size: 24px&quot;&gt;5&lt;/font&gt;" style="ellipse;whiteSpace=wrap;html=1;aspect=fixed;" parent="1" vertex="1">
          <mxGeometry x="370" y="90" width="50" height="50" as="geometry" />
        </mxCell>
        <mxCell id="3GdXQBYGe-d5dMTSXX5j-2" value="&lt;font style=&quot;font-size: 24px&quot;&gt;4&lt;/font&gt;" style="ellipse;whiteSpace=wrap;html=1;aspect=fixed;" parent="1" vertex="1">
          <mxGeometry x="260" y="180" width="50" height="50" as="geometry" />
        </mxCell>
        <mxCell id="3GdXQBYGe-d5dMTSXX5j-3" value="&lt;font style=&quot;font-size: 24px&quot;&gt;10&lt;/font&gt;" style="ellipse;whiteSpace=wrap;html=1;aspect=fixed;" parent="1" vertex="1">
          <mxGeometry x="477.5" y="180" width="50" height="50" as="geometry" />
        </mxCell>
        <mxCell id="3GdXQBYGe-d5dMTSXX5j-4" value="&lt;font style=&quot;font-size: 24px&quot;&gt;3&lt;/font&gt;" style="ellipse;whiteSpace=wrap;html=1;aspect=fixed;" parent="1" vertex="1">
          <mxGeometry x="167.5" y="285" width="50" height="50" as="geometry" />
        </mxCell>
        <mxCell id="3GdXQBYGe-d5dMTSXX5j-5" value="&lt;font style=&quot;font-size: 24px&quot;&gt;5&lt;/font&gt;" style="ellipse;whiteSpace=wrap;html=1;aspect=fixed;fillColor=#d5e8d4;strokeColor=#82b366;" parent="1" vertex="1">
          <mxGeometry x="304" y="285" width="50" height="50" as="geometry" />
        </mxCell>
        <mxCell id="3GdXQBYGe-d5dMTSXX5j-7" value="&lt;font style=&quot;font-size: 24px&quot;&gt;10&lt;/font&gt;" style="ellipse;whiteSpace=wrap;html=1;aspect=fixed;fillColor=#d5e8d4;strokeColor=#82b366;" parent="1" vertex="1">
          <mxGeometry x="440" y="285" width="50" height="50" as="geometry" />
        </mxCell>
        <mxCell id="3GdXQBYGe-d5dMTSXX5j-8" value="&lt;font style=&quot;font-size: 24px&quot;&gt;15&lt;/font&gt;" style="ellipse;whiteSpace=wrap;html=1;aspect=fixed;fillColor=#f8cecc;strokeColor=#b85450;" parent="1" vertex="1">
          <mxGeometry x="570" y="285" width="50" height="50" as="geometry" />
        </mxCell>
        <mxCell id="3GdXQBYGe-d5dMTSXX5j-12" value="&lt;font style=&quot;font-size: 24px&quot;&gt;4&lt;/font&gt;" style="ellipse;whiteSpace=wrap;html=1;aspect=fixed;fillColor=#d5e8d4;strokeColor=#82b366;" parent="1" vertex="1">
          <mxGeometry x="217.5" y="390" width="50" height="50" as="geometry" />
        </mxCell>
        <mxCell id="3GdXQBYGe-d5dMTSXX5j-13" value="&lt;font style=&quot;font-size: 24px&quot;&gt;3&lt;/font&gt;" style="ellipse;whiteSpace=wrap;html=1;aspect=fixed;direction=south;fillColor=#f8cecc;strokeColor=#b85450;" parent="1" vertex="1">
          <mxGeometry x="90" y="390" width="50" height="50" as="geometry" />
        </mxCell>
        <mxCell id="3GdXQBYGe-d5dMTSXX5j-17" value="" style="endArrow=none;html=1;entryX=0;entryY=1;entryDx=0;entryDy=0;exitX=1;exitY=0;exitDx=0;exitDy=0;" parent="1" source="3GdXQBYGe-d5dMTSXX5j-2" target="3GdXQBYGe-d5dMTSXX5j-1" edge="1">
          <mxGeometry width="50" height="50" relative="1" as="geometry">
            <mxPoint x="320" y="130" as="sourcePoint" />
            <mxPoint x="370" y="80" as="targetPoint" />
          </mxGeometry>
        </mxCell>
        <mxCell id="3GdXQBYGe-d5dMTSXX5j-19" value="" style="endArrow=none;html=1;entryX=0;entryY=1;entryDx=0;entryDy=0;exitX=0.5;exitY=0;exitDx=0;exitDy=0;" parent="1" source="3GdXQBYGe-d5dMTSXX5j-4" target="3GdXQBYGe-d5dMTSXX5j-2" edge="1">
          <mxGeometry width="50" height="50" relative="1" as="geometry">
            <mxPoint x="157.5" y="260" as="sourcePoint" />
            <mxPoint x="207.5" y="210" as="targetPoint" />
          </mxGeometry>
        </mxCell>
        <mxCell id="3GdXQBYGe-d5dMTSXX5j-20" value="" style="endArrow=none;html=1;entryX=0;entryY=1;entryDx=0;entryDy=0;exitX=0;exitY=0.5;exitDx=0;exitDy=0;" parent="1" source="3GdXQBYGe-d5dMTSXX5j-13" target="3GdXQBYGe-d5dMTSXX5j-4" edge="1">
          <mxGeometry width="50" height="50" relative="1" as="geometry">
            <mxPoint x="30" y="530" as="sourcePoint" />
            <mxPoint x="80" y="480" as="targetPoint" />
          </mxGeometry>
        </mxCell>
        <mxCell id="3GdXQBYGe-d5dMTSXX5j-21" value="" style="endArrow=none;html=1;entryX=1;entryY=1;entryDx=0;entryDy=0;exitX=0.5;exitY=0;exitDx=0;exitDy=0;" parent="1" source="3GdXQBYGe-d5dMTSXX5j-12" target="3GdXQBYGe-d5dMTSXX5j-4" edge="1">
          <mxGeometry width="50" height="50" relative="1" as="geometry">
            <mxPoint x="30" y="530" as="sourcePoint" />
            <mxPoint x="80" y="480" as="targetPoint" />
          </mxGeometry>
        </mxCell>
        <mxCell id="3GdXQBYGe-d5dMTSXX5j-22" value="" style="endArrow=none;html=1;entryX=1;entryY=1;entryDx=0;entryDy=0;exitX=0.5;exitY=0;exitDx=0;exitDy=0;" parent="1" source="3GdXQBYGe-d5dMTSXX5j-5" target="3GdXQBYGe-d5dMTSXX5j-2" edge="1">
          <mxGeometry width="50" height="50" relative="1" as="geometry">
            <mxPoint x="30" y="530" as="sourcePoint" />
            <mxPoint x="80" y="480" as="targetPoint" />
          </mxGeometry>
        </mxCell>
        <mxCell id="3GdXQBYGe-d5dMTSXX5j-23" value="" style="endArrow=none;html=1;entryX=1;entryY=1;entryDx=0;entryDy=0;exitX=0;exitY=0;exitDx=0;exitDy=0;" parent="1" source="3GdXQBYGe-d5dMTSXX5j-3" target="3GdXQBYGe-d5dMTSXX5j-1" edge="1">
          <mxGeometry width="50" height="50" relative="1" as="geometry">
            <mxPoint x="30" y="530" as="sourcePoint" />
            <mxPoint x="80" y="480" as="targetPoint" />
          </mxGeometry>
        </mxCell>
        <mxCell id="3GdXQBYGe-d5dMTSXX5j-24" value="" style="endArrow=none;html=1;entryX=0;entryY=1;entryDx=0;entryDy=0;exitX=0.5;exitY=0;exitDx=0;exitDy=0;" parent="1" source="3GdXQBYGe-d5dMTSXX5j-7" target="3GdXQBYGe-d5dMTSXX5j-3" edge="1">
          <mxGeometry width="50" height="50" relative="1" as="geometry">
            <mxPoint x="30" y="530" as="sourcePoint" />
            <mxPoint x="80" y="480" as="targetPoint" />
          </mxGeometry>
        </mxCell>
        <mxCell id="3GdXQBYGe-d5dMTSXX5j-25" value="" style="endArrow=none;html=1;entryX=1;entryY=1;entryDx=0;entryDy=0;exitX=0.5;exitY=0;exitDx=0;exitDy=0;" parent="1" source="3GdXQBYGe-d5dMTSXX5j-8" target="3GdXQBYGe-d5dMTSXX5j-3" edge="1">
          <mxGeometry width="50" height="50" relative="1" as="geometry">
            <mxPoint x="30" y="530" as="sourcePoint" />
            <mxPoint x="80" y="480" as="targetPoint" />
          </mxGeometry>
        </mxCell>
        <mxCell id="3GdXQBYGe-d5dMTSXX5j-26" value="" style="endArrow=block;html=1;entryX=0;entryY=0.5;entryDx=0;entryDy=0;exitX=0.5;exitY=0;exitDx=0;exitDy=0;endFill=0;strokeWidth=3;fillColor=#f8cecc;strokeColor=#b85450;" parent="1" source="3GdXQBYGe-d5dMTSXX5j-13" target="3GdXQBYGe-d5dMTSXX5j-12" edge="1">
          <mxGeometry width="50" height="50" relative="1" as="geometry">
            <mxPoint x="30" y="530" as="sourcePoint" />
            <mxPoint x="80" y="480" as="targetPoint" />
          </mxGeometry>
        </mxCell>
        <mxCell id="3GdXQBYGe-d5dMTSXX5j-27" value="" style="endArrow=block;html=1;entryX=0;entryY=1;entryDx=0;entryDy=0;exitX=1;exitY=0;exitDx=0;exitDy=0;endFill=0;strokeWidth=3;fillColor=#f8cecc;strokeColor=#b85450;" parent="1" source="3GdXQBYGe-d5dMTSXX5j-12" target="3GdXQBYGe-d5dMTSXX5j-5" edge="1">
          <mxGeometry width="50" height="50" relative="1" as="geometry">
            <mxPoint x="90.00000000000023" y="445" as="sourcePoint" />
            <mxPoint x="170.00000000000023" y="445" as="targetPoint" />
          </mxGeometry>
        </mxCell>
        <mxCell id="3GdXQBYGe-d5dMTSXX5j-29" value="" style="endArrow=block;html=1;entryX=0;entryY=0.5;entryDx=0;entryDy=0;exitX=1;exitY=0.5;exitDx=0;exitDy=0;endFill=0;strokeWidth=3;fillColor=#f8cecc;strokeColor=#b85450;" parent="1" source="3GdXQBYGe-d5dMTSXX5j-5" target="3GdXQBYGe-d5dMTSXX5j-7" edge="1">
          <mxGeometry width="50" height="50" relative="1" as="geometry">
            <mxPoint x="100.00000000000023" y="455" as="sourcePoint" />
            <mxPoint x="180.00000000000023" y="455" as="targetPoint" />
          </mxGeometry>
        </mxCell>
        <mxCell id="3GdXQBYGe-d5dMTSXX5j-30" value="" style="endArrow=block;html=1;entryX=0;entryY=0.5;entryDx=0;entryDy=0;exitX=1;exitY=0.5;exitDx=0;exitDy=0;endFill=0;strokeWidth=3;fillColor=#f8cecc;strokeColor=#b85450;" parent="1" source="3GdXQBYGe-d5dMTSXX5j-7" target="3GdXQBYGe-d5dMTSXX5j-8" edge="1">
          <mxGeometry width="50" height="50" relative="1" as="geometry">
            <mxPoint x="110.00000000000023" y="465" as="sourcePoint" />
            <mxPoint x="190.00000000000023" y="465" as="targetPoint" />
          </mxGeometry>
        </mxCell>
      </root>
    </mxGraphModel>
  </diagram>
</mxfile>
